<svg height="316.277" viewBox="0 0 484.136 316.277" width="484.136" xmlns="http://www.w3.org/2000/svg"><g fill="#fff"><path d="m0 118.4c0-3.316 1.366-5.462 4.682-7.8 8.583-6.437 11.314-13.07 11.7-25.945 0-.78 1.756-1.17 1.951-.39a67.037 67.037 0 0 1 2.146 16.776c0 15.021-5.852 25.359-13.85 25.359-3.898 0-6.629-3.319-6.629-8zm43.306-17.947c0 74.127.585 105.534.585 115.287 0 4.682-2.731 6.827-8.583 6.827-4.682 0-6.828-1.756-6.828-5.657 0-8.973 1.17-38.624 1.17-121.53 0-35.893-.39-44.281-1.17-52.669 19.9 2.536 21.263 2.926 21.263 5.462 0 1.561-1.366 2.926-6.437 5.072zm10.534 4.1c-.39-8.193-2.341-15.606-5.657-20.678-.39-.585.975-1.756 1.561-1.366 9.949 6.632 16 15.021 16 22.628 0 4.682-2.731 8.193-6.632 8.193s-5.077-2.148-5.272-8.78zm90.9-46.232c6.437-6.242 7.413-7.023 8.583-7.023 1.366 0 2.536.78 9.363 6.632 3.511 3.316 4.1 4.487 4.1 5.852 0 1.951-1.756 2.731-7.413 4.292a150.962 150.962 0 0 1 -34.723 40.575 34.354 34.354 0 0 0 4.487 2.731c16.581 9.168 36.478 14.435 56.181 16.581.975.2.78 1.951-.2 2.146-4.292.78-7.023 3.706-8.388 8.973-.585 2.731-1.561 3.9-3.316 3.9-1.561 0-4.682-.78-9.949-2.341-14.045-4.292-32.382-12.68-47.793-25.164-17.947 12.875-39.014 22.433-63.4 29.066-1.366.39-2.146-2.536-.975-3.121a233.685 233.685 0 0 0 55.79-33.357c-12.68-12.68-21.458-28.48-28.48-44.866h-3.507a42.5 42.5 0 0 0 -11.119 1.561l-1.951-7.8a71.958 71.958 0 0 0 14.825 1.366zm12.29 149.23c8.193-9.949 9.559-10.729 10.924-10.729s2.731.78 11.119 8.193c3.706 3.121 4.682 4.487 4.682 5.657s-.585 1.756-2.536 1.756h-112.944a105 105 0 0 0 -14.825 1.17l-1.95-7.416a84.935 84.935 0 0 0 16.581 1.365h37.844v-39.4h-26.336a99.24 99.24 0 0 0 -14.045 1.17l-1.951-7.608a67.541 67.541 0 0 0 15.8 1.561h26.53v-6.242c0-11.119 0-18.337-.585-25.164 18.727 1.756 20.483 3.316 20.483 5.267 0 1.561-1.366 2.926-6.047 4.877v21.263h26.335c7.8-9.168 9.168-9.949 10.534-9.949 1.17 0 2.536.78 10.534 7.218 3.511 3.316 4.487 4.682 4.487 5.852s-.585 1.756-2.536 1.756h-49.354v39.4zm-74.125-144.357c7.608 14.825 18.142 28.285 31.407 38.429 13.265-11.9 23.8-24.969 30.821-38.429z" transform="translate(38.459 33.518)"/><path d="m187.935 139.467c8-2.341 15.8-5.072 23.214-8 1.17-.39 1.756 1.951.78 2.536a158.608 158.608 0 0 1 -23.994 13.46c.2 41.16.585 60.862.585 68.275 0 4.682-2.731 7.023-8.973 7.023-4.682 0-6.242-1.756-6.242-5.462 0-7.023.585-25.164.78-63.788-6.632 2.731-13.46 5.267-20.873 7.608-.78 5.462-1.951 7.023-3.706 7.023-2.341 0-4.1-3.121-8.583-19.507a77.4 77.4 0 0 0 13.07-1.17c6.437-1.17 13.265-2.536 20.092-4.292.2-13.07.2-28.09.2-45.452v-2.145h-16.196c-4.487 13.655-10.534 26.53-18.337 36.088-.78.975-2.926.2-2.536-.975 5.462-13.07 9.949-32.187 12.485-48.768a171 171 0 0 0 1.951-20.483c13.46 3.511 18.337 5.267 18.337 7.608 0 1.561-1.17 2.536-6.047 3.9-1.17 5.852-2.731 11.9-4.487 17.752h14.825c0-32.187-.2-40.38-.78-47.988 19.312 2.341 21.068 3.121 21.068 5.657 0 1.561-1.17 2.731-6.632 5.072v37.261h5.657c5.462-7.413 6.828-8.388 8-8.388s2.341.975 8.778 6.828c2.341 1.951 3.316 3.316 3.316 4.682 0 1.17-.585 1.756-2.536 1.756h-23.216zm108.265-55.595c6.047-6.828 7.218-7.608 8.388-7.608 1.366 0 2.926.585 9.168 6.242 3.121 2.926 3.706 4.1 3.706 5.462 0 1.17-.78 1.951-5.267 4.877-2.341 58.521-4.1 84.661-11.509 106.7-2.341 7.8-5.462 13.07-9.559 16.386a23.273 23.273 0 0 1 -14.435 4.682c-2.341 0-2.731-.585-3.511-3.511-1.365-6.242-5.657-9.559-22.238-13.85-1.366-.39-.975-3.121.39-2.926 13.46 1.951 21.653 2.536 24.969 2.536 7.8 0 9.559-1.951 12.68-14.63 5.657-21.458 7.8-53.645 8.973-99.487h-8.583c-11.314 63.788-35.7 95.975-80.955 117.823-.975.585-2.341-1.561-1.365-2.146 35.308-24.384 59.3-59.887 68.08-115.677h-16c-9.754 38.039-30.431 65.934-62.033 82.32-.78.39-2.341-1.366-1.561-1.951 24.579-19.9 41.745-48.183 49.353-80.37h-14.821a141.977 141.977 0 0 1 -27.7 34.723c-.78.585-2.341-.975-1.756-1.756 11.314-14.825 20.873-36.869 25.945-55.205 2.536-9.168 4.1-17.361 4.292-23.8 16.191 3.121 21.068 4.877 21.068 7.413 0 1.756-1.17 3.121-7.023 4.292a175.622 175.622 0 0 1 -12.29 29.456z" transform="translate(102.76 33.518)"/><path d="m36.346 200.712c2.573 0 3.187-.183 3.8-.736a7.742 7.742 0 0 0 1.686-2.359c.123-.214.214-.245.49-.154s.337.185.306.4c-.368 1.562-1.133 4.29-1.654 5.884-2.084-.062-3.709-.062-5.915-.062-2.238 0-4.046 0-6.068.062-.307 0-.4-.031-.4-.521a1.38 1.38 0 0 1 .183-.859 52.9 52.9 0 0 1 5.364-7.846c2.6-3.34 4.075-4.963 4.075-7.815 0-2.543-.888-4.382-2.635-4.382a2.529 2.529 0 0 0 -2.544 1.778 6.758 6.758 0 0 0 -.275 2.238c0 .857-1.165 1.44-2.3 1.44-.859 0-1.471-.245-1.471-1.164 0-1.961 2.482-5.211 6.589-5.211 4.137 0 6.344 2.452 6.344 5.425 0 3.923-2.82 5.394-5.915 8.274-3.4 3.095-4.168 4.046-5.087 5.608z" transform="translate(9.867 110.74)"/><path d="m50.659 192.8c0 7.05-2.544 11.493-6.8 11.493-4.413 0-6.865-4.228-6.865-11.307 0-7.172 2.514-11.585 6.865-11.585 4.257-.001 6.8 4.417 6.8 11.399zm-10.083.093c0 6.375.644 10.45 3.279 10.45 2.544 0 3.218-4.075 3.218-10.45 0-6.406-.613-10.543-3.218-10.543-2.635.004-3.279 4.141-3.279 10.55z" transform="translate(18.071 110.74)"/><path d="m52.987 200.712c2.575 0 3.187-.183 3.8-.736a7.756 7.756 0 0 0 1.685-2.359c.123-.214.214-.245.49-.154s.337.185.306.4c-.368 1.562-1.134 4.29-1.654 5.884-2.084-.062-3.709-.062-5.915-.062-2.238 0-4.046 0-6.069.062-.306 0-.4-.031-.4-.521a1.387 1.387 0 0 1 .183-.859 53.035 53.035 0 0 1 5.363-7.846c2.605-3.34 4.076-4.963 4.076-7.815 0-2.543-.889-4.382-2.635-4.382a2.526 2.526 0 0 0 -2.544 1.778 6.727 6.727 0 0 0 -.276 2.238c0 .857-1.165 1.44-2.3 1.44-.857 0-1.471-.245-1.471-1.164 0-1.961 2.483-5.211 6.59-5.211 4.137 0 6.344 2.452 6.344 5.425 0 3.923-2.82 5.394-5.915 8.274-3.4 3.095-4.168 4.046-5.087 5.608z" transform="translate(26.125 110.74)"/><path d="m61.323 191.947c3.616.736 5.639 2.7 5.639 5.7 0 4.075-2.728 6.649-7.019 6.649a8.015 8.015 0 0 1 -4.5-1.2c-.981-.612-1.992-1.593-1.992-2.573 0-.736.8-1.319 2.207-1.319 1.2 0 1.594 1.471 1.961 2.33a2.349 2.349 0 0 0 2.329 1.807c2.145 0 3.341-2.236 3.341-5.792 0-2.207-.951-5.211-4.015-5-.4.031-1.073.093-1.379.093-.276 0-.43-.062-.307-.614.092-.581.245-.7.582-.7.276 0 .8.093 1.165.093 1.685 0 3.4-1.349 3.4-4.782 0-2.328-.889-4.29-2.574-4.29a2.376 2.376 0 0 0 -2.3 1.378 3.835 3.835 0 0 0 -.245 1.533c0 1.012-.981 1.595-2.3 1.595-.95 0-1.41-.307-1.41-.981 0-1.747 2.391-4.475 6.252-4.475 3.494 0 6.069 1.931 6.069 5.27 0 3.187-2.3 4.506-4.9 5.12z" transform="translate(34.148 110.74)"/><path d="m78.306 196.553c1.2-1.444 1.465-1.618 1.619-1.618.2 0 .437.174 1.6 1.114.524.438.7.635.7.788s-.066.218-.285.218h-7.61c.021 2.342.066 4.462.066 5.4 0 .656-.438.942-1.313.942-.634 0-.962-.2-.962-.766s.088-2.253.088-5.577h-7.7a12.07 12.07 0 0 0 -1.619.131l-.24-.809a9.5 9.5 0 0 0 1.793.176h1.925v-3c0-1.093-.022-2.187-.088-3.28a14.381 14.381 0 0 1 2.3 1.048h3.62v-4.02h-4.041a14.722 14.722 0 0 1 -4.921 4.79c-.088.066-.306-.11-.219-.2a19.173 19.173 0 0 0 3.781-6.25 11.879 11.879 0 0 0 .7-2.516c2.318.68 2.908.942 2.908 1.313 0 .241-.263.394-.94.481-.328.678-.656 1.292-1.006 1.882h9.273c1.137-1.334 1.4-1.51 1.553-1.51.2 0 .437.176 1.552 1.05.5.415.679.589.679.743s-.066.218-.285.218h-6.934v4.023h2.58c1.116-1.268 1.291-1.4 1.465-1.4.219 0 .416.131 1.487.963.5.394.634.546.634.722 0 .153-.088.218-.328.218h-5.838v.788c0 1.268 0 2.624.022 3.936zm-6.1-4.724h-3.785v4.724h3.779z" transform="translate(43.136 112.42)"/><path d="m78.949 192.915a4.5 4.5 0 0 1 4.076-2.483c3.892 0 5.915 2.851 5.915 6.805 0 4.075-2.514 7.139-6.682 7.139-4.075 0-7.018-3.309-7.018-8.61 0-5.272 2.573-8.7 6.221-11.585a20.454 20.454 0 0 1 5.118-2.851c.245 0 .4 0 .827.583.4.521.245.919-.061.919a8.017 8.017 0 0 0 -4.536 1.533c-2.146 1.564-3.586 4.506-4.046 8.55zm.215 1.257a3.9 3.9 0 0 0 -.4 1.9c0 4.935 1.348 7.355 3.493 7.355 2.084 0 3.065-2.7 3.065-6.158 0-3.128-.889-5.641-3.156-5.641-1.347 0-2.359.98-3.001 2.544z" transform="translate(55.44 110.668)"/><path d="m88.48 195.09c-.066.349-.131.678-.2 1.029a10.85 10.85 0 0 1 -4.571 6.757c-.087.066-.263-.066-.2-.153a12.406 12.406 0 0 0 2.756-6.168 47.034 47.034 0 0 0 .437-7.61c0-2.537-.043-4.178-.131-5.533a13.647 13.647 0 0 1 2.471 1.247h7.13c.744-.9.919-1.029 1.094-1.029.219 0 .416.131 1.291.788.394.307.525.459.525.635 0 .2-.066.261-.591.633v2.45c0 10.257.066 11.045.066 12.444 0 1.027-.2 1.487-.853 1.857a3.521 3.521 0 0 1 -1.706.438c-.459 0-.546-.087-.612-.546-.131-.832-.962-1.313-2.493-1.641-.109-.021-.109-.284 0-.284 1.268.066 2.274.087 3.083.087.328 0 .394-.066.394-.371v-5.03zm7.9-5.074h-7.571a39.881 39.881 0 0 1 -.263 4.572h7.829zm0-4.855h-7.528v.853c0 1.158 0 2.34-.021 3.5h7.545z" transform="translate(63.509 112.702)"/><path d="m102.722 200.716c2.573 0 3.187-.183 3.8-.736a7.742 7.742 0 0 0 1.686-2.359c.123-.214.214-.245.49-.154s.337.185.306.4c-.368 1.562-1.133 4.29-1.655 5.884-2.084-.062-3.709-.062-5.915-.062-2.238 0-4.046 0-6.068.062-.307 0-.4-.031-.4-.521a1.38 1.38 0 0 1 .183-.859 52.9 52.9 0 0 1 5.364-7.846c2.6-3.34 4.075-4.963 4.075-7.815 0-2.543-.888-4.382-2.635-4.382a2.529 2.529 0 0 0 -2.544 1.778 6.758 6.758 0 0 0 -.275 2.238c0 .857-1.165 1.44-2.3 1.44-.859 0-1.471-.245-1.471-1.164 0-1.961 2.482-5.211 6.589-5.211 4.137 0 6.344 2.452 6.344 5.425 0 3.923-2.82 5.394-5.915 8.274-3.4 3.095-4.168 4.046-5.087 5.608z" transform="translate(74.71 110.744)"/><path d="m106.689 200.407v1.008c0 .633-.437.875-1.312.875-.679 0-.941-.2-.941-.722 0-1.794.131-3.608.131-10.827 0-2.361-.021-4.722-.109-7.085a13.633 13.633 0 0 1 2.537 1.247h8.464c.919-.985 1.094-1.116 1.268-1.116.219 0 .394.131 1.291.875.394.351.525.5.525.678 0 .22-.153.373-.656.7v2.492c0 6.6.131 11.155.131 12.663 0 .635-.482.9-1.356.9-.7 0-.94-.22-.94-.722v-.963zm9.032-15h-9.032v6.8h9.032zm0 7.305h-9.032v7.2h9.032z" transform="translate(83.96 112.939)"/><path d="m121.755 183.079c0 .066-.022.11-.109.2a13.556 13.556 0 0 0 -.088 20.339c.153.154.2.2.2.284s-.043.131-.109.131-.131-.021-.285-.131a15.075 15.075 0 0 1 -4.4-4.7 11.134 11.134 0 0 1 0-11.415 15.224 15.224 0 0 1 4.418-4.724c.109-.066.153-.11.218-.11.09-.006.155.039.155.126z" transform="translate(94.662 112.248)"/><path d="m125.2 190.715a22.812 22.812 0 0 1 -5.4 2.822c-.109.042-.24-.176-.153-.241a21.68 21.68 0 0 0 7.436-7.392 14.022 14.022 0 0 0 1.181-2.647c3.084.832 3.105.832 3.105 1.095 0 .174-.153.328-.83.5a15.853 15.853 0 0 0 4.177 3.631 16.466 16.466 0 0 0 5.621 1.946c.109.021.109.263 0 .284-.831.176-1.2.635-1.531 1.793-.088.328-.2.438-.373.438a2.073 2.073 0 0 1 -.743-.307 21 21 0 0 1 -3.149-2.164 18.775 18.775 0 0 1 -4.33-5.336 18.326 18.326 0 0 1 -4.833 5.444 7.234 7.234 0 0 0 1.29.131h4.637c.743-1.05 1.006-1.224 1.158-1.224.2 0 .437.174 1.268.875.35.284.525.481.525.635s-.066.218-.284.218h-3.412v3.629h4.156c.918-1.114 1.181-1.29 1.334-1.29.2 0 .437.176 1.334.9.394.328.569.525.569.68s-.066.218-.285.218h-7.107v6.429h5.03c1.182-1.334 1.443-1.508 1.6-1.508.2 0 .437.174 1.488 1.048.481.394.655.591.655.745s-.066.218-.284.218h-16.887a7.9 7.9 0 0 0 -1.334.131l-.24-.809a7.148 7.148 0 0 0 1.553.174h6.32v-6.429h-5.162a7.907 7.907 0 0 0 -1.334.131l-.24-.809a7.148 7.148 0 0 0 1.553.174h5.183v-3.629h-1.728a7.909 7.909 0 0 0 -1.334.131zm.394 9.952c-.546 0-.831-.241-1.006-1.095a6.133 6.133 0 0 0 -1.181-3c-.066-.087.043-.218.153-.174 1.968.786 3.193 1.815 3.193 2.886.003.834-.453 1.383-1.153 1.383zm9.863-2.691a13.551 13.551 0 0 1 -3.608 3.062c-.088.066-.306-.131-.24-.218a17.234 17.234 0 0 0 1.574-2.865 10.261 10.261 0 0 0 .634-1.838c2.274 1.006 2.537 1.137 2.537 1.4s-.194.35-.894.458z" transform="translate(98.793 112.55)"/><path d="m131.494 183.057a15.224 15.224 0 0 1 4.418 4.724 11.133 11.133 0 0 1 0 11.415 15.075 15.075 0 0 1 -4.4 4.7c-.153.11-.218.131-.284.131s-.11-.042-.11-.131.044-.129.2-.284a13.555 13.555 0 0 0 -.087-20.339c-.088-.087-.11-.131-.11-.2 0-.087.066-.131.153-.131.068.005.111.05.22.115z" transform="translate(110.03 112.248)"/><path d="m139.045 193.72c-.131.052-.289-.183-.183-.263a27.862 27.862 0 0 0 7.873-7.479 19.236 19.236 0 0 0 2.388-4.593q3.675 1.155 3.675 1.469c0 .236-.184.367-1.129.6a18.449 18.449 0 0 0 5.59 5.143 18.869 18.869 0 0 0 6.483 2.284c.131.025.131.315 0 .34-.893.131-1.444.761-1.837 2.2-.105.342-.236.473-.447.473a3.139 3.139 0 0 1 -.97-.394 25.547 25.547 0 0 1 -3.937-2.809 23.31 23.31 0 0 1 -5.248-6.823c-2.758 4.682-6.668 7.752-12.258 9.852zm10.262 4.539h-4.7a10.027 10.027 0 0 0 -1.627.158l-.289-.971a9 9 0 0 0 1.916.21h4.7v-4.882h-3.675a10.9 10.9 0 0 0 -1.68.158l-.289-.971a9.581 9.581 0 0 0 1.968.21h8.241c1.128-1.5 1.444-1.707 1.627-1.707.237 0 .5.21 1.627 1.182.5.446.709.681.709.865s-.079.263-.342.263h-5.616v4.882h3.385c1.208-1.575 1.522-1.786 1.706-1.786.237 0 .5.21 1.733 1.261.524.446.735.681.735.865s-.079.263-.341.263h-7.217v5.541h6.43c1.365-1.707 1.68-1.917 1.863-1.917.236 0 .5.21 1.785 1.34.551.5.761.734.761.917s-.078.263-.341.263h-20.838a13.466 13.466 0 0 0 -1.889.158l-.289-.971a11.224 11.224 0 0 0 2.126.21h7.821z" transform="translate(117.557 110.722)"/><path d="m155.668 203.944c0 .761-.472 1.048-1.521 1.048-.736 0-1.05-.263-1.05-.865 0-2.257.157-4.514.157-13.6 0-2.99-.026-6.01-.131-9.027a17.46 17.46 0 0 1 2.939 1.521h16.167c1.049-1.18 1.26-1.338 1.469-1.338.263 0 .473.158 1.5 1.05.446.419.6.6.6.813 0 .263-.209.5-.787.84v3.2c0 8.477.157 14.277.157 16.219 0 .761-.525 1.075-1.575 1.075-.735 0-1.075-.263-1.075-.84v-.761h-16.85zm16.849-20.313h-16.849v19.053h16.849zm-10 9.211h-3.017a9.734 9.734 0 0 0 -1.6.158l-.289-.971a8.117 8.117 0 0 0 1.811.21h3.1v-4.8h-3.652a10.671 10.671 0 0 0 -1.68.158l-.289-.971a9.515 9.515 0 0 0 1.942.208h8.74c1.049-1.232 1.364-1.442 1.548-1.442.236 0 .55.21 1.627 1.023.473.367.682.577.682.761s-.079.263-.341.263h-6.115v4.8h2.1c.892-1.234 1.208-1.444 1.391-1.444.236 0 .525.21 1.522 1 .446.367.655.6.655.788s-.078.261-.341.261h-5.327v6.2h3.254c.919-1.34 1.234-1.548 1.417-1.548.237 0 .525.209 1.575 1.1.446.369.655.6.655.788s-.078.263-.341.263h-13.1a9.518 9.518 0 0 0 -1.6.158l-.289-.971a8.663 8.663 0 0 0 1.863.21h4.094zm6.01 4.672c-.5 0-.708-.21-.971-.919a5.708 5.708 0 0 0 -1.656-2.495c-.105-.079 0-.21.13-.183 2.546.446 3.675 1.182 3.675 2.336a1.2 1.2 0 0 1 -1.178 1.26z" transform="translate(131.496 110.839)"/><path d="m179.335 185.08a1.759 1.759 0 0 0 .945-.315 1.5 1.5 0 0 1 .919-.394 2.682 2.682 0 0 1 1.312.55c.892.6 1.391 1.075 1.391 1.469 0 .369-.157.525-.5.736-.157.1-.289.183-.446.788-.551 1.967-1 4.147-1.626 6.743a2.254 2.254 0 0 1 1.075.394.668.668 0 0 1 .368.6.648.648 0 0 1 -.472.681 3.375 3.375 0 0 1 -.762.054c-.709 0-1.417-.079-2.257-.079-2.336 0-4.908.131-7.821.394a4.557 4.557 0 0 1 -.078 1.154.928.928 0 0 1 -.945.577c-.682 0-1.1-.5-1.154-1.444-.158-3.122-.29-6.377-.578-9.763a2.549 2.549 0 0 0 -1.417-2.23c-.236-.158-.341-.158-.341-.315 0-.183.341-.473.814-.473a6.367 6.367 0 0 1 3.228 1.469c3.123-.257 5.669-.465 8.345-.596zm1.05 1.967a3.282 3.282 0 0 0 .026-.394c0-.1-.052-.131-.157-.131h-.42c-3.15.158-6.141.369-8.739.6.1 2.755.183 5.406.315 8.162 3.2-.21 5.485-.369 7.873-.5.446-2.83.788-5.401 1.102-7.737z" transform="translate(145.029 113.484)"/><path d="m197.378 189.477c-.814 0-2.6-.131-3.884-.131-2.073 0-6.587.1-9.815.394a7.466 7.466 0 0 0 -2.6.5 1.138 1.138 0 0 1 -.709.21c-.682 0-1.286-.631-2.1-1.811a2.13 2.13 0 0 1 -.5-1.417c0-.421.157-.631.315-.631.078 0 .209.106.341.237a2.594 2.594 0 0 0 2.2 1c.709 0 1.208-.025 2.756-.131 3.254-.209 6.718-.367 9.29-.419a4.993 4.993 0 0 0 2.047-.369 1.772 1.772 0 0 1 .735-.208 3.027 3.027 0 0 1 1.181.263c1 .419 1.68.813 1.68 1.469a1 1 0 0 1 -.937 1.044z" transform="translate(155.604 115.805)"/><path d="m199.01 191.976c1.574.656 2.44 1.469 2.44 2.651a1.3 1.3 0 0 1 -1.128 1.39 1.766 1.766 0 0 1 -1.443-.761 14.4 14.4 0 0 0 -1.89-1.915 7.716 7.716 0 0 0 -2.729-1.5v4.566c0 1.1.052 3.518.1 6.352 0 1-.446 1.234-.97 1.234a1.213 1.213 0 0 1 -1.1-.6 4.45 4.45 0 0 1 -.577-2.073 2.735 2.735 0 0 1 .13-.761.968.968 0 0 0 .131-.446c.027-.342.079-1.077.105-5.879.026-2.494 0-4.724 0-7.191a13.722 13.722 0 0 0 -.105-2.23 1.208 1.208 0 0 0 -.551-.6 3.733 3.733 0 0 0 -.918-.421c-.183-.052-.263-.131-.263-.236 0-.156.183-.288.341-.394a1.52 1.52 0 0 1 .736-.236 6.248 6.248 0 0 1 2.651.709c.709.315 1.049.736 1.049 1.234a1.126 1.126 0 0 1 -.446.84.815.815 0 0 0 -.183.525c-.079.734-.131 2.282-.131 4.724a14.752 14.752 0 0 1 4.751 1.018zm2.178-7.848a1.968 1.968 0 0 1 .971 1.575.882.882 0 0 1 -.866.919.941.941 0 0 1 -.892-.6 9.8 9.8 0 0 0 -1.654-2.309c-.105-.106-.289-.237-.289-.342 0-.158.131-.183.315-.183a2.345 2.345 0 0 1 .6.1 4.829 4.829 0 0 1 1.815.84zm2.441-1.836a1.6 1.6 0 0 1 .944 1.338.879.879 0 0 1 -.813.971 1.006 1.006 0 0 1 -.971-.577 6.676 6.676 0 0 0 -1.837-2.048c-.105-.077-.316-.209-.316-.315a.206.206 0 0 1 .21-.209 3.644 3.644 0 0 1 .682.077 6.133 6.133 0 0 1 2.101.763z" transform="translate(167.786 110.787)"/><path d="m198.334 188.963c0-.183.289-.263.735-.263a8.647 8.647 0 0 1 2.651.421c1.391.446 2.073 1.182 2.073 2.021a1.481 1.481 0 0 1 -1.365 1.6c-.394 0-.787-.29-1.181-.919a6.709 6.709 0 0 0 -2.545-2.519c-.262-.104-.368-.209-.368-.341zm4.436 11.737c-.525 0-1-.315-1.759-1.182a4.512 4.512 0 0 1 -1.234-2.309c0-.5.236-.946.368-.946.183 0 .236.158.394.317.394.446.866 1.048 1.522 1.048a4.413 4.413 0 0 0 1.574-.525 41.207 41.207 0 0 0 6.43-3.909 64.9 64.9 0 0 0 7.164-6.01c.263-.263.42-.446.6-.446a.235.235 0 0 1 .263.263.817.817 0 0 1 -.183.446 33.476 33.476 0 0 1 -6.089 6.823 51.931 51.931 0 0 1 -7.3 5.276 2.615 2.615 0 0 0 -.814.629 1.211 1.211 0 0 1 -.936.525zm-1.05-17.321c0-.1.105-.21.446-.21a6.5 6.5 0 0 1 2.808.6c.814.419 1.864 1.1 1.864 2.126a1.424 1.424 0 0 1 -1.391 1.6c-.473 0-.682-.236-1.1-.971a8.786 8.786 0 0 0 -2.362-2.807c-.212-.159-.265-.186-.265-.343z" transform="translate(175.689 112.46)"/><path d="m220.722 188.092c.026-.263-.053-.342-.21-.342-2.02.131-3.857.263-5.537.473a5.223 5.223 0 0 0 -1.968.419 1.028 1.028 0 0 1 -.656.21c-.289 0-.682-.21-1.208-.867a2.157 2.157 0 0 1 -.655-1.5c0-.288.157-.5.262-.5.079 0 .131.052.236.158a2.019 2.019 0 0 0 1.391.761 16.113 16.113 0 0 0 1.732-.106c1.89-.129 3.438-.236 5.59-.367a1.813 1.813 0 0 0 .919-.288.993.993 0 0 1 .629-.185 2.98 2.98 0 0 1 1.208.448c.788.446 1.076.892 1.076 1.18 0 .263-.131.421-.368.656a.789.789 0 0 0 -.263.552c-.289 2.126-.551 4.145-.945 7.085.736.21 1.024.681 1.024.971 0 .419-.236.656-.551.656-.183 0-.6-.027-1.076-.052-.367 0-.787-.027-1.443-.027a41.64 41.64 0 0 0 -5.485.419 3.062 3.062 0 0 0 -1.47.421 1.061 1.061 0 0 1 -.525.183 1.794 1.794 0 0 1 -1.26-.736 2.22 2.22 0 0 1 -.735-1.521c0-.419.157-.577.263-.577a.4.4 0 0 1 .263.158 1.93 1.93 0 0 0 1.522.761c.289 0 .84-.027 1.627-.106 1.968-.209 3.91-.34 5.879-.5.237-1.627.368-2.807.42-3.622-2.651.131-3.805.263-5.327.446a2.712 2.712 0 0 0 -1.443.394.924.924 0 0 1 -.551.183c-.368 0-.787-.183-1.338-.84a2.244 2.244 0 0 1 -.682-1.417c0-.183.1-.446.236-.446.079 0 .158.052.342.21a1.844 1.844 0 0 0 1.26.577c.209 0 .735-.027 1.548-.079 2.02-.156 3.727-.288 6.062-.473.101-1.09.154-1.853.207-2.77z" transform="translate(187.509 115.196)"/><path d="m238.911 189.477c-.814 0-2.6-.131-3.884-.131-2.073 0-6.587.1-9.815.394a7.466 7.466 0 0 0 -2.6.5 1.138 1.138 0 0 1 -.708.21c-.682 0-1.286-.631-2.1-1.811a2.13 2.13 0 0 1 -.5-1.417c0-.421.157-.631.315-.631.078 0 .209.106.341.237a2.594 2.594 0 0 0 2.2 1c.709 0 1.208-.025 2.756-.131 3.254-.209 6.718-.367 9.29-.419a4.993 4.993 0 0 0 2.047-.369 1.772 1.772 0 0 1 .735-.208 3.027 3.027 0 0 1 1.181.263c1 .419 1.68.813 1.68 1.469a1 1 0 0 1 -.938 1.044z" transform="translate(196.178 115.805)"/><g stroke="#fff" stroke-width=".5"><path d="m5.043 35.24c0-1.386 0-2.156-.1-3.439a18.055 18.055 0 0 1 2.592 1.13h11.515c.821-.951 1.027-1.1 1.231-1.1.257 0 .462.153 1.335.9.385.334.538.514.538.718 0 .231-.128.386-.718.769v5.482h.487c.9-1.231 1.207-1.436 1.386-1.436.231 0 .487.2 1.462 1 .41.359.616.59.616.769s-.077.256-.334.256h-21.553a13.006 13.006 0 0 0 -1.847.155l-.279-.944a11.456 11.456 0 0 0 2.129.2h1.54zm5.542-12.366c.769-.9.975-1.052 1.18-1.052.257 0 .462.155 1.206.745.333.283.488.462.488.666 0 .179-.077.258-.642.668v.821c0 1.153.052 1.77.052 1.974 0 .565-.41.821-1.207.821-.641 0-.949-.179-.949-.642v-.175h-1.313v3.362h1.59c.847-1.155 1.154-1.361 1.334-1.361.231 0 .488.206 1.385.976.36.307.565.538.565.718s-.077.258-.334.258h-8.9v.281c0 .592-.385.873-1.257.873-.642 0-1-.2-1-.718 0-1.411.154-2.847.154-8.569 0-1.462-.026-2.95-.154-4.439a21.942 21.942 0 0 1 2.437 1.359h5.362c.9-1.128 1.1-1.281 1.308-1.281.257 0 .488.153 1.411.871.436.361.591.54.591.745 0 .179-.1.258-.385.258h-4.107v2.847zm-3.259-2.847h-2.283v2.847h2.283zm-2.283 6.079h5.67v-2.642h-5.67zm2.283 3.952v-3.358h-2.283v3.362zm-.026 3.464v6.178h2.463v-6.178zm4.618 6.178h2.515v-6.178h-2.515zm5.029-16.727a14.868 14.868 0 0 1 -3.361 3.746c-.1.076-.307-.078-.231-.179a16.827 16.827 0 0 0 2.232-5.235 22.362 22.362 0 0 0 .667-3.385c2.642.718 3.284.974 3.284 1.333 0 .309-.307.489-1.026.59a17.88 17.88 0 0 1 -1.206 2.541h3.494c1.359-1.438 1.539-1.642 1.719-1.642.23 0 .513.2 1.642 1.1.564.46.769.691.769.871s-.077.258-.333.258zm3.258 4.746c1.308-1.463 1.488-1.669 1.668-1.669.231 0 .487.206 1.59 1.13.538.46.744.691.744.871s-.076.258-.333.258h-6.953a9.839 9.839 0 0 0 -1.59.153l-.283-.949a8.8 8.8 0 0 0 1.873.206zm-1.052 5.8h-2.591v6.181h2.591z" transform="translate(-1.019 14.691)"/><path d="m20.519 26.177a9.95 9.95 0 0 1 -4.208 3.823c-.1.052-.308-.1-.231-.206a12.8 12.8 0 0 0 2.13-3.232 9 9 0 0 0 .616-2.077c2.18.718 2.539.922 2.539 1.2 0 .262-.231.415-.846.492zm2.848-3.077h2.9c.9-1.231 1.207-1.438 1.386-1.438.231 0 .513.206 1.539 1.027.436.334.642.565.642.745s-.077.256-.333.256h-5.211v2.873c0 .693.026 1.128.026 1.487a1.509 1.509 0 0 1 -.564 1.258 2.51 2.51 0 0 1 -1.488.384c-.41 0-.514-.128-.59-.666-.129-.821-.385-1.025-1.566-1.283-.128-.025-.128-.283 0-.283.719.052 1.335.1 1.745.1.283 0 .41-.1.41-.514v-3.36h-3.363a16.454 16.454 0 0 0 -2.078.155l-.282-.951a14.191 14.191 0 0 0 2.386.206h2.361v-2.974a21.317 21.317 0 0 0 -.1-2.411c2.848.307 2.951.334 2.951.745 0 .231-.1.307-.769.59v1.411h1.487c.873-1.155 1.18-1.359 1.36-1.359.23 0 .487.2 1.334.949.359.334.564.565.564.745s-.076.256-.333.256h-4.414zm-.693 16.882v.41c0 .642-.462.974-1.462.974-.718 0-1.052-.229-1.052-.794 0-1.207.128-2.49.128-7.364 0-1.359-.025-2.719-.128-4.078a26.67 26.67 0 0 1 2.566 1.335h10.107c.77-.8.976-.951 1.181-.951.256 0 .461.155 1.411.9.436.359.59.538.59.743 0 .155-.1.283-.693.693v1.411c0 3.721.179 6.337.179 7.185 0 .642-.538.922-1.462.922-.745 0-1.052-.179-1.052-.846v-.538zm10.314-8.928h-10.314v2.232h10.314zm0 2.822h-10.314v2.36h10.314zm0 2.95h-10.314v2.566h10.314zm-5.414-8.776c-.513 0-.744-.2-1.026-.821a5.4 5.4 0 0 0 -1.821-2.36c-.1-.076 0-.2.128-.179 2.437.41 3.772 1.231 3.772 2.259a1.037 1.037 0 0 1 -1.053 1.101zm7.8-8.414c.847-.949 1.052-1.1 1.257-1.1.257 0 .462.155 1.411.976.436.384.59.563.59.769 0 .256-.179.384-.821.666a20.56 20.56 0 0 1 -3.181 4.439 12.314 12.314 0 0 0 5.592 2.052c.129.025.077.231-.051.283a2.744 2.744 0 0 0 -1.745 1.59c-.154.334-.257.435-.462.435a2.646 2.646 0 0 1 -.847-.307 14.258 14.258 0 0 1 -3.771-2.9 15.823 15.823 0 0 1 -5.926 2.9c-.129.025-.257-.231-.155-.283a18.505 18.505 0 0 0 5.055-3.95 21 21 0 0 1 -2.181-4.977 4.171 4.171 0 0 0 -1.282.2l-.283-1a6.039 6.039 0 0 0 1.54.206zm-4.746.59a12.322 12.322 0 0 0 2.54 3.9 21.564 21.564 0 0 0 2.206-3.9z" transform="translate(11.022 14.517)"/><path d="m37.209 25.321a2.3 2.3 0 1 1 -2.309-2.308 2.294 2.294 0 0 1 2.309 2.308z" transform="translate(24.59 18.863)"/><path d="m55.5 41.512a25.084 25.084 0 0 0 3.732.24 95.367 95.367 0 0 0 10.27-.583c.171 0 .171.274 0 .343-1.1.514-1.369.993-1.506 2.362-.035.446-.068.65-1.541.72-1.062.068-2.91.068-6.06.068-4.382 0-7.875-1.027-10.271-3.012a9.853 9.853 0 0 1 -3.256-4.55c-1.541 3.833-4.177 6.264-8.422 8.078-.171.069-.41-.274-.274-.377a16.73 16.73 0 0 0 5.786-8.318 19.32 19.32 0 0 0 .856-4.929c3.869.65 4.177.718 4.177 1.128s-.308.686-1.027.857a26.167 26.167 0 0 1 -.753 2.738 10.134 10.134 0 0 0 3.8 3.8 14.044 14.044 0 0 0 1.267.615v-10.992h-11.024a17 17 0 0 0 -2.431.206l-.377-1.267a15.13 15.13 0 0 0 2.841.274h22.288c1.644-1.985 2.054-2.259 2.294-2.259.307 0 .684.274 2.26 1.574.719.581.992.89.992 1.13s-.1.341-.445.341h-13.176v5.2h5.066c1.472-1.884 1.883-2.157 2.123-2.157.308 0 .65.274 2.123 1.505.617.549.89.857.89 1.1s-.1.343-.445.343h-9.757zm-8.94-15.921v.172c0 .924-.617 1.3-1.986 1.3-.924 0-1.266-.41-1.266-1.1 0-1.368.171-2.635.171-8.114a36.99 36.99 0 0 0 -.171-3.869c1.643.72 1.917.823 3.526 1.61h12.873c1.232-1.37 1.506-1.574 1.781-1.574.342 0 .616.2 1.883 1.265.582.514.787.753.787 1.027 0 .343-.1.48-.992 1.164v1.37c0 3.561.137 6.026.137 6.847 0 .924-.548 1.3-1.951 1.3-.788 0-1.267-.341-1.267-1.027v-.377zm13.523-9.209h-13.523v3.766h13.523zm0 4.553h-13.523v3.865h13.523z" transform="translate(29.111 11.463)"/><path d="m65.595 26.791c3.047.924 4.417 2.088 4.417 3.662a1.5 1.5 0 0 1 -1.541 1.574c-.89 0-.993-.137-1.575-2.294a5.3 5.3 0 0 0 -1.3-2.362c.035 6.506.137 14.79.137 16.981 0 .787-.65 1.13-1.814 1.13-.89 0-1.335-.309-1.335-.993 0-1.814.275-9.621.275-15.131a20.312 20.312 0 0 1 -5.2 8.251c-.1.137-.445-.069-.343-.206a48.6 48.6 0 0 0 4.93-14.38h-1.684a15.322 15.322 0 0 0 -2.294.206l-.376-1.267a12.262 12.262 0 0 0 2.533.274h2.225v-3.868a42.626 42.626 0 0 0 -.171-4.382c3.663.41 4.279.547 4.279 1.061 0 .377-.342.617-1.164.96v6.23h.856c1.027-1.745 1.439-2.019 1.678-2.019.308 0 .617.274 1.781 1.438.445.444.719.787.719 1.027s-.1.341-.445.341h-4.588zm11.2-5.615h-4.285a15.741 15.741 0 0 0 -2.328.206l-.377-1.267a12.776 12.776 0 0 0 2.6.274h4.385v-2.125a33.555 33.555 0 0 0 -.171-4.142c3.972.343 4.314.686 4.314 1.027 0 .274-.308.65-1.027.924v4.315h4.451c1.609-1.884 2.02-2.157 2.26-2.157.308 0 .65.274 2.089 1.507.616.514.856.857.856 1.095s-.1.343-.445.343h-9.212v6.124h3.185c1.2-1.37 1.471-1.576 1.746-1.576.342 0 .616.206 2.02 1.507.617.547.822.821.822 1.1 0 .444-.24.615-1.37.992a29.453 29.453 0 0 1 -5.508 8.388 22.963 22.963 0 0 0 9 3.527c.171.034.1.341-.068.41-1.062.444-1.609 1.164-2.191 2.841-.068.206-.206.377-.377.377a4.917 4.917 0 0 1 -1.541-.583 30.959 30.959 0 0 1 -6.745-4.793 30.3 30.3 0 0 1 -11.743 5.65c-.171.034-.342-.444-.171-.514a32.811 32.811 0 0 0 10.168-7.053 25.65 25.65 0 0 1 -4.554-9.482 7.344 7.344 0 0 0 -1.951.274l-.377-1.336a10.068 10.068 0 0 0 2.294.275h4.246zm-3.56 6.916a21.7 21.7 0 0 0 5.375 7.84 28.189 28.189 0 0 0 4.485-7.84z" transform="translate(44.815 11.463)"/><path d="m84.494 29.825c.411.137.822.24 1.2.377a19.909 19.909 0 0 0 1.267-2.328 9.729 9.729 0 0 0 .616-1.711c2.466 1.267 2.808 1.507 2.808 1.917 0 .377-.205.514-1.13.581a12.6 12.6 0 0 1 -2.6 1.884 4 4 0 0 1 2.328 2.02 28.832 28.832 0 0 0 6.47-8.937 18.926 18.926 0 0 0 1.165-3.389c2.91 1.027 4.074 1.644 4.074 2.088 0 .377-.205.514-1.1.617a16.28 16.28 0 0 0 4.621 4.69 23.931 23.931 0 0 0 5.958 2.808c.171.069.068.41-.1.446-1.164.171-1.541.514-2.054 1.951-.239.718-.376.89-.719.89a2.288 2.288 0 0 1 -.89-.446 20.057 20.057 0 0 1 -3.971-3.833 21.7 21.7 0 0 1 -3.324-5.85 23.235 23.235 0 0 1 -7.052 7.977 24 24 0 0 1 2.67 1.438h7.6c.65-.857.925-1.061 1.2-1.061.342 0 .65.2 1.951 1.231.617.514.822.753.822 1.027s-.205.446-.753.686v1.471c0 3.835.205 6.506.205 7.36 0 1.063-.582 1.507-1.951 1.507-.992 0-1.369-.343-1.369-1.335v-.96h-8.116v1.233c0 .89-.582 1.231-1.883 1.231-.993 0-1.37-.307-1.37-1.164 0-1.164.138-2.328.138-7.018 0-1.678-.035-3.355-.069-5.033q-1.026.616-2.053 1.13a1.443 1.443 0 0 1 -1.37 1.471c-.65 0-.924-.274-1.266-1.2a8.433 8.433 0 0 0 -1.952-3.151v3.081c0 3.972.1 8.935.1 10.579 0 .96-.582 1.37-1.678 1.37-1.164 0-1.574-.309-1.574-1.233 0-.753.239-3.012.239-7.565v-5.237a29.356 29.356 0 0 1 -4.211 2.909c-.137.069-.445-.307-.308-.41a32.577 32.577 0 0 0 8.285-12.29h-5.27a8.806 8.806 0 0 0 -2.157.274l-.376-1.37a12.283 12.283 0 0 0 2.533.275h1.4v-3.767a24.465 24.465 0 0 0 -.205-3.183c3.937.377 4.313.752 4.313 1.128 0 .275-.342.583-1.1.89v4.931h.89c1.027-1.13 1.3-1.336 1.575-1.336.342 0 .582.206 1.711 1.4.48.514.685.787.685 1.061 0 .412-.308.65-1.1.823a26.567 26.567 0 0 1 -3.766 5.82zm12.222-12.7a18.446 18.446 0 0 1 -7.772 7.36c-.137.069-.342-.206-.239-.343a29.145 29.145 0 0 0 4.348-6.881 26.036 26.036 0 0 0 1.027-3.011c2.978 1.265 3.972 1.848 3.972 2.225 0 .41-.308.581-1.335.65zm5.718 16.675h-8.114v8.354h8.114zm4.039-10.579c-.787 0-1.2-.377-1.78-1.711a18.006 18.006 0 0 0 -4.693-6.336c-.137-.1.035-.377.205-.309 5.136 1.713 7.874 3.938 7.874 6.333.003 1.202-.647 2.02-1.606 2.02z" transform="translate(60.996 11.371)"/><path d="m106.72 29.379c0 6.127.035 12.8.035 14.687 0 .89-.582 1.3-1.986 1.3-.924 0-1.369-.309-1.369-1.061 0-1.576.377-8.251.41-13.66a24.276 24.276 0 0 1 -6.778 7.565c-.137.1-.342-.171-.24-.307a39.3 39.3 0 0 0 6.3-12.77h-3.664a11.848 11.848 0 0 0 -2.02.2l-.377-1.265a10.15 10.15 0 0 0 2.294.274h4.314v-5.578c-1.781.274-3.7.48-5.958.617-.171 0-.24-.444-.068-.48a34.508 34.508 0 0 0 9.175-3.319 16.09 16.09 0 0 0 2.5-1.747c2.876 2.225 3.047 2.4 3.047 2.875s-.65.583-1.711.309a39.719 39.719 0 0 1 -3.9 1.164v6.163h1.439c1.3-1.644 1.711-1.917 1.951-1.917.308 0 .685.274 1.986 1.368.547.446.822.753.822.993s-.1.343-.445.343h-5.757v2.945c3.663.958 5.444 2.292 5.444 4.073a1.676 1.676 0 0 1 -1.541 1.814c-.822 0-1.062-.24-1.746-1.985a9.452 9.452 0 0 0 -2.157-3.288zm9.963 12.187v1.334c0 .992-.753 1.335-1.951 1.335-.993 0-1.4-.41-1.4-1.1 0-1.505.137-7.257.137-17.116 0-3.595 0-5.136-.137-8.08a27.886 27.886 0 0 1 3.663 1.781h6.4c1.3-1.473 1.574-1.678 1.849-1.678.342 0 .582.2 1.814 1.3.547.514.753.787.753 1.061 0 .343-.138.514-.959 1.13v3.423c0 9.141.171 15.647.171 17.735 0 .958-.719 1.37-1.883 1.37-1.027 0-1.506-.343-1.506-1.13v-1.37zm6.95-21.054h-6.95v20.266h6.95z" transform="translate(77.171 11.34)"/><path d="m126.052 36.16-1.1-1.061 8.388-8.388-8.388-8.32 1.061-1.095 8.354 8.388 8.353-8.388 1.062 1.095-8.388 8.32 8.388 8.354-1.062 1.095-8.353-8.421z" transform="translate(100.279 14.178)"/><path d="m148.839 31.61a31.12 31.12 0 0 1 -.565 4.336 12.874 12.874 0 0 1 -2.539 5.336c-.077.1-.308-.052-.257-.179a24.465 24.465 0 0 0 1.18-5.413 133.448 133.448 0 0 0 .359-13.418c0-1.539-.025-2.618-.1-4.132a17.468 17.468 0 0 1 2.383 1.36h1.488c.769-.976.975-1.13 1.18-1.13.257 0 .436.155 1.309.9.359.332.514.538.514.743s-.129.334-.693.668v2.95c0 13.854.026 14.419.026 14.957a2.315 2.315 0 0 1 -.8 1.949 2.387 2.387 0 0 1 -1.488.437c-.385 0-.514-.128-.564-.514-.129-.949-.436-1.308-1.873-1.745-.129-.025-.129-.307 0-.307 1.077.076 1.565.076 2.232.076.307 0 .385-.1.385-.462v-6.412zm.205-5.9c-.026 1.772-.052 3.542-.155 5.312h2.13v-5.314zm1.975-5.617h-1.919v1.153c0 1.411-.026 2.694-.026 3.874h1.95zm7.184 8.517a20.827 20.827 0 0 1 -2.694 6.9 36.591 36.591 0 0 0 3.72-.361 10.813 10.813 0 0 0 -1-3.488.134.134 0 0 1 .205-.155c2.027 1.642 3.1 3.284 3.1 4.643 0 1-.488 1.669-1.231 1.669-.667 0-.9-.386-1.026-2a27.87 27.87 0 0 1 -4.413 1.846c-.128.59-.282.769-.538.769s-.436-.359-.949-2.873c.59 0 1.051 0 1.487-.025a46.065 46.065 0 0 0 1-6.927h-.642a7.956 7.956 0 0 0 -1.436.153l-.283-.949a7.533 7.533 0 0 0 1.718.206h.976v-4.567h-.514a7.816 7.816 0 0 0 -1.437.155l-.282-.951a7.527 7.527 0 0 0 1.718.206h.514v-1.848c0-1.052-.026-2.052-.1-2.95 2.746.283 2.977.538 2.977.8 0 .231-.205.435-.693.615v3.387h.41c.642-.949.949-1.231 1.129-1.231.23 0 .487.231 1.154.873.283.283.488.512.488.693s-.077.256-.334.256h-2.848v4.567h.514c.8-1.18 1.1-1.386 1.282-1.386.231 0 .462.206 1.309.976.333.307.538.563.538.743s-.076.258-.333.258zm10.416-5.671c0 9.417.052 10.7.052 11.673a1.937 1.937 0 0 1 -.873 1.925 3.216 3.216 0 0 1 -1.488.435c-.282 0-.385-.153-.41-.64-.128-.873-.359-1.1-1.616-1.541 0 4.542.026 4.926.026 5.312 0 .693-.385 1-1.283 1-.641 0-.949-.179-.949-.769 0-1.72.1-5.415.1-14.6 0-4.491-.026-6-.129-7.6 1.1.59 1.257.668 2.309 1.283h2c.769-.846.976-1 1.18-1 .257 0 .462.155 1.231.745.334.283.488.462.488.666 0 .283-.154.514-.642.821zm-4.362.386c0 5.105 0 8.594.026 11.005.77.027 1.36.052 1.9.052.283 0 .334-.076.334-.384v-13.985h-2.259z" transform="translate(117.094 14.806)"/><path d="m170.817 34.964c.052-2.642.129-5.285.129-7.927a24.731 24.731 0 0 1 -10.493 9.8c-.129.052-.283-.179-.18-.256a30.7 30.7 0 0 0 9.338-12.391h-5.9a18.3 18.3 0 0 0 -2.206.153l-.283-.949a14.739 14.739 0 0 0 2.437.2h7.132v-2.18a28.973 28.973 0 0 0 -.154-3.567c2.617.206 3.387.386 3.387.771 0 .231-.205.435-.8.743v4.239h6.029c1.206-1.564 1.514-1.77 1.694-1.77.231 0 .513.206 1.847 1.231.59.489.8.693.8.873s-.077.258-.333.258h-9.8a16.412 16.412 0 0 0 3.977 5.592 19.127 19.127 0 0 0 7.209 4 .134.134 0 0 1 0 .258c-.975.307-1.411.743-1.9 1.974-.128.359-.257.489-.462.489a2.921 2.921 0 0 1 -1.154-.54 18.921 18.921 0 0 1 -5-4.9 24.613 24.613 0 0 1 -3.027-6.157c.052 2.385.129 7.748.205 10.056h1.309c1.078-1.411 1.385-1.615 1.565-1.615.231 0 .488.2 1.59 1.128.462.41.667.642.667.821s-.077.256-.333.256h-4.8c.052 2.335.077 4.053.077 4.825 0 .743-.564 1.052-1.566 1.052-.821 0-1.128-.231-1.128-.873 0-.514.052-2.49.1-5h-2.924a13.963 13.963 0 0 0 -1.9.155l-.283-.949a10.477 10.477 0 0 0 2.027.2z" transform="translate(129.2 14.632)"/><path d="m181.112 25.321a2.3 2.3 0 1 1 -2.308-2.308 2.294 2.294 0 0 1 2.308 2.308z" transform="translate(142.545 18.863)"/><path d="m190.533 33.852c1.438-.444 2.875-.924 4.109-1.4.171-.068.307.309.171.41a44.073 44.073 0 0 1 -9.346 5.546c-.068 1.027-.308 1.473-.787 1.473-.445 0-.822-.72-2.123-4.348a18.272 18.272 0 0 0 2.568-.343c.684-.137 1.472-.307 2.259-.514v-10.342h-2.4a7.952 7.952 0 0 0 -1.644.206l-.377-1.267a6.726 6.726 0 0 0 1.884.274h2.533v-5.477a34.658 34.658 0 0 0 -.171-3.972c4.074.377 4.451.718 4.451 1.061 0 .307-.239.547-1.129.89v7.5h.684c1.13-1.541 1.541-1.814 1.781-1.814.308 0 .65.274 1.746 1.267.445.444.719.753.719.993s-.1.341-.445.341h-4.484zm17.631-9.175c1.37-1.477 1.643-1.677 1.917-1.677.342 0 .617.2 2.02 1.335.651.549.857.787.857 1.061 0 .309-.24.514-1.164.993a28.87 28.87 0 0 1 -4.622 10.237 21.487 21.487 0 0 0 8.182 4.553c.171.068.068.343-.1.41a4.338 4.338 0 0 0 -2.293 2.328c-.343.753-.411.857-.685.857a2.7 2.7 0 0 1 -1.027-.547 27.451 27.451 0 0 1 -5.888-5.546c-2.876 2.841-6.676 4.86-11.846 6.367-.172.034-.342-.343-.205-.41 4.724-2.5 8.114-5.1 10.51-8.286a28.919 28.919 0 0 1 -3.287-10.886h-1.233a33.947 33.947 0 0 1 -1.369 9.758 16.61 16.61 0 0 1 -8.182 9.552c-.138.068-.445-.137-.308-.24a19.382 19.382 0 0 0 5.786-10c.719-3.183.856-7.325.856-13.146 0-2.875-.035-4.073-.205-6.264a25.863 25.863 0 0 1 3.869 2.019h8.935c1.575-2.019 1.849-2.225 2.123-2.225.343 0 .65.206 2.294 1.541.787.617.992.857.992 1.13 0 .24-.137.343-.514.343h-14.177v1.128c0 2.054 0 3.9-.068 5.615zm-6.915.787a23.3 23.3 0 0 0 3.869 8.9 28.487 28.487 0 0 0 3.287-8.9z" transform="translate(147.492 11.556)"/><path d="m222.155 39.786c0 1.164.547 1.4 3.08 1.4 1.781 0 2.842-.036 3.63-.48 1.1-.684 1.506-2.225 2.4-5.923.034-.171.41-.137.41.034v4.245c0 .857.035.924.617 1.2a1.326 1.326 0 0 1 .753 1.3c0 .924-.514 1.541-1.747 1.917a22.6 22.6 0 0 1 -6.3.581c-4.964 0-6.163-.617-6.163-3.458 0-2.191.035-4.176.035-6.744v-8.382h-4.52c-.034 5.443-.787 9.345-2.362 12.187-1.917 3.458-5.169 5.445-10.477 7.087a.175.175 0 0 1 -.137-.307c4.245-2.5 6.71-4.862 8.079-8.388a28.528 28.528 0 0 0 1.507-10.579h-5.615a28.347 28.347 0 0 0 -3.15.2l-.377-1.265a24.172 24.172 0 0 0 3.56.274h21.3c1.848-2.294 2.259-2.568 2.5-2.568.308 0 .685.274 2.6 1.781.856.718 1.129.992 1.129 1.231s-.1.343-.444.343h-10.308zm.547-23.178c1.814-2.122 2.226-2.4 2.465-2.4.308 0 .685.275 2.466 1.61.856.65 1.1.993 1.1 1.231s-.1.343-.445.343h-18.9a25.657 25.657 0 0 0 -2.978.206l-.377-1.267a19.9 19.9 0 0 0 3.253.274z" transform="translate(162.865 11.648)"/><path d="m228.162 29.825c.411.137.822.24 1.2.377a19.913 19.913 0 0 0 1.267-2.328 9.729 9.729 0 0 0 .616-1.711c2.466 1.267 2.808 1.507 2.808 1.917 0 .377-.205.514-1.13.581a12.6 12.6 0 0 1 -2.6 1.884 4 4 0 0 1 2.328 2.02 28.832 28.832 0 0 0 6.47-8.937 18.926 18.926 0 0 0 1.165-3.389c2.91 1.027 4.074 1.644 4.074 2.088 0 .377-.205.514-1.1.617a16.279 16.279 0 0 0 4.621 4.69 23.931 23.931 0 0 0 5.958 2.808c.171.069.068.41-.1.446-1.164.171-1.541.514-2.054 1.951-.239.718-.376.89-.719.89a2.288 2.288 0 0 1 -.89-.446 20.057 20.057 0 0 1 -3.971-3.833 21.7 21.7 0 0 1 -3.321-5.855 23.235 23.235 0 0 1 -7.052 7.977 24 24 0 0 1 2.67 1.438h7.598c.65-.857.925-1.061 1.2-1.061.342 0 .65.2 1.951 1.231.617.514.822.753.822 1.027s-.205.446-.753.686v1.471c0 3.835.205 6.506.205 7.36 0 1.063-.582 1.507-1.951 1.507-.992 0-1.369-.343-1.369-1.335v-.96h-8.114v1.233c0 .89-.582 1.231-1.883 1.231-.993 0-1.37-.307-1.37-1.164 0-1.164.138-2.328.138-7.018 0-1.678-.035-3.355-.069-5.033q-1.026.616-2.053 1.13a1.443 1.443 0 0 1 -1.37 1.471c-.65 0-.924-.274-1.266-1.2a8.433 8.433 0 0 0 -1.952-3.151v3.081c0 3.972.1 8.935.1 10.579 0 .96-.582 1.37-1.678 1.37-1.164 0-1.574-.309-1.574-1.233 0-.753.239-3.012.239-7.565v-5.232a29.356 29.356 0 0 1 -4.211 2.909c-.137.069-.445-.307-.308-.41a32.577 32.577 0 0 0 8.285-12.29h-5.272a8.806 8.806 0 0 0 -2.157.274l-.376-1.37a12.283 12.283 0 0 0 2.533.275h1.4v-3.767a24.465 24.465 0 0 0 -.205-3.183c3.937.377 4.313.752 4.313 1.128 0 .275-.342.583-1.1.89v4.931h.89c1.027-1.13 1.3-1.336 1.575-1.336.342 0 .582.206 1.711 1.4.48.514.685.787.685 1.061 0 .412-.308.65-1.1.823a26.569 26.569 0 0 1 -3.766 5.82zm12.222-12.7a18.447 18.447 0 0 1 -7.772 7.36c-.137.069-.342-.206-.239-.343a29.144 29.144 0 0 0 4.348-6.881 26.039 26.039 0 0 0 1.027-3.012c2.978 1.265 3.972 1.848 3.972 2.225 0 .411-.308.582-1.335.651zm5.716 16.675h-8.114v8.354h8.114zm4.039-10.579c-.787 0-1.2-.377-1.78-1.711a18.006 18.006 0 0 0 -4.69-6.333c-.137-.1.035-.377.205-.309 5.136 1.713 7.874 3.938 7.874 6.333.002 1.199-.648 2.017-1.607 2.017z" transform="translate(178.758 11.371)"/><path d="m265.53 37.569c1.986-2.4 2.4-2.671 2.636-2.671.308 0 .685.274 2.6 1.85.857.718 1.13 1.027 1.13 1.265s-.1.343-.445.343h-26.805a33.03 33.03 0 0 0 -3.39.206l-.376-1.267a24.691 24.691 0 0 0 3.629.274zm-3.595-19.206c1.781-2.26 2.191-2.534 2.431-2.534.308 0 .685.274 2.465 1.747.822.684 1.1.993 1.1 1.231s-.1.343-.445.343h-19.211a24.623 24.623 0 0 0 -2.944.206l-.377-1.267a19.807 19.807 0 0 0 3.218.274z" transform="translate(195.301 12.975)"/></g><path d="m56.492 2.008h-3.392v11.657h-2.124v-13.665h5.516zm-4.972-1.482v12.613h1.037v-11.657h3.408v-.956z" transform="translate(39.639)"/><path d="m61.84 1.982a30.337 30.337 0 0 1 -.247 3.458h4.215c.659-.707.791-.807.922-.807.165 0 .3.1.988.675.313.263.411.379.411.51 0 .116-.049.165-.51.528a26.248 26.248 0 0 1 -.791 6.058 3.241 3.241 0 0 1 -1.3 1.861 2.6 2.6 0 0 1 -1.448.38c-.33 0-.363 0-.461-.478-.132-.61-.511-1-2.075-1.416-.083-.016-.05-.3.033-.279a22.077 22.077 0 0 0 2.65.263c.675 0 .988-.4 1.2-1.5a30.106 30.106 0 0 0 .593-5.418h-4.476a16.054 16.054 0 0 1 -1.054 3.837 9.772 9.772 0 0 1 -5.269 5.2c-.083.034-.181-.116-.116-.165a11.489 11.489 0 0 0 4.085-5.872 22.564 22.564 0 0 0 .889-6.834h-3.211a13.932 13.932 0 0 0 -1.531.1l-.181-.61a11.505 11.505 0 0 0 1.729.132h10.077c.905-1.121 1.102-1.252 1.218-1.252.148 0 .33.132 1.235.873.411.329.543.478.543.594s-.049.163-.214.163z" transform="translate(43.007 .289)"/><path d="m66.477 8.288c-.083.247-.148.476-.231.707-.115.313-.3.379-.774.379-.494 0-.79-.132-.79-.363a.61.61 0 0 1 .049-.247 21.647 21.647 0 0 0 .769-2.781 12.012 12.012 0 0 0 .264-2.241 9.06 9.06 0 0 1 1.548.775h2.849v-2.964h-4.047a2.865 2.865 0 0 0 -.84.132l-.181-.658a3.957 3.957 0 0 0 1.087.147h3.9c.527-.61.658-.707.79-.707.165 0 .3.1.873.542.263.231.362.347.362.478 0 .116-.049.165-.444.494v.56c0 1.448.05 2.454.05 2.783 0 .444-.28.642-.889.642-.444 0-.658-.147-.658-.494v-.572h-2.964a24.017 24.017 0 0 1 -.626 3.014h3.507c.56-.594.691-.691.824-.691.164 0 .3.1.873.576.247.213.346.329.346.46 0 .116-.05.165-.461.494a13.3 13.3 0 0 1 -1.021 4.693 2.607 2.607 0 0 1 -1.1 1.219 2.122 2.122 0 0 1 -1.087.263c-.379 0-.395-.116-.477-.594-.083-.494-.544-.807-1.63-1.251-.082-.032-.033-.263.05-.247a10.594 10.594 0 0 0 2.173.379c.313 0 .544-.116.774-.626a13.732 13.732 0 0 0 .824-4.3zm10.455-4.034c0 4.4.116 8.906.116 9.994 0 .494-.33.741-1.071.741-.494 0-.724-.165-.724-.594 0-.675.1-2.733.1-6.865 0-5.468-.017-6.422-.148-7.2 2.026.149 2.306.2 2.306.462 0 .147-.067.279-.577.526z" transform="translate(50.874 .274)"/><path d="m75.058 4.774a2.392 2.392 0 0 1 -1.268-1.036.406.406 0 0 1 -.066-.181.117.117 0 0 1 .115-.132.3.3 0 0 1 .214.082 2.442 2.442 0 0 0 1.564.528 12.31 12.31 0 0 0 3.227-.627c-.1-.345-.3-1.07-.461-1.63a.629.629 0 0 0 -.494-.51 2.71 2.71 0 0 0 -.477-.082c-.083 0-.164-.018-.214-.018a.112.112 0 0 1 -.116-.116.326.326 0 0 1 .1-.213 1.232 1.232 0 0 1 .954-.478 3.514 3.514 0 0 1 1.154.231c.427.165.658.412.658.691a.888.888 0 0 1 -.1.4 1 1 0 0 0 -.066.494 8.675 8.675 0 0 0 .1.873 7.8 7.8 0 0 0 1.118-.466 3.145 3.145 0 0 0 .346-.2 1.909 1.909 0 0 0 .247-.181 1.026 1.026 0 0 1 .642-.2c.626 0 1.037.147 1.037.494 0 .313-.132.444-.757.725-.741.329-1.63.673-2.4.938a14.263 14.263 0 0 0 .675 1.926 6.155 6.155 0 0 0 1.2-.56c.1-.066.115-.1.115-.181s-.18-.363-.609-.775c-.083-.082-.116-.132-.116-.2a.109.109 0 0 1 .116-.1c.066 0 .132.048.329.147a2.175 2.175 0 0 0 1.1.3 3.566 3.566 0 0 0 .411-.034 1.187 1.187 0 0 1 .445-.032.594.594 0 0 1 .494.51.688.688 0 0 1 -.4.61 17.194 17.194 0 0 1 -2.651 1.235 8.125 8.125 0 0 0 1.556 2.194 1.693 1.693 0 0 1 .658 1.367.762.762 0 0 1 -.691.823 1.06 1.06 0 0 1 -.675-.363 2.951 2.951 0 0 0 -.954-.56 8.369 8.369 0 0 0 -2.454-.46 4.128 4.128 0 0 0 -1.909.379 1.355 1.355 0 0 0 -.807 1.1c0 .576.411 1.136 1.432 1.333a10.533 10.533 0 0 0 1.893.165c.511 0 .873-.082 1.169-.082a2.024 2.024 0 0 1 .938.213.746.746 0 0 1 .494.741.639.639 0 0 1 -.313.528 2.448 2.448 0 0 1 -1.218.2 10.531 10.531 0 0 1 -3.277-.462c-1.515-.542-2.075-1.367-2.075-2.271a2.213 2.213 0 0 1 1.318-1.951 6.023 6.023 0 0 1 2.6-.544 22.832 22.832 0 0 1 2.536.149 22.946 22.946 0 0 1 -1.136-2.157 9.977 9.977 0 0 1 -2.9.544c-1.037 0-1.861-.528-1.861-1.185a1.661 1.661 0 0 1 .461-1.038 3.857 3.857 0 0 1 .712-.669 3.78 3.78 0 0 1 -1.663-.226zm2.009.412a2.984 2.984 0 0 0 -.61.709 1.285 1.285 0 0 0 -.164.592c0 .281.214.428.774.428a8.956 8.956 0 0 0 2.816-.526c-.264-.659-.412-1.054-.725-1.928-.724.215-1 .281-1.548.412a2.594 2.594 0 0 0 -.543.313z" transform="translate(58.286 .296)"/><path d="m88.507 5.11a10.3 10.3 0 0 1 -1.581 1.367c1.992 1.845 2.783 3.474 2.783 5.763a3.378 3.378 0 0 1 -.692 2.355 1.977 1.977 0 0 1 -1.531.61c-.3 0-.379-.05-.411-.363-.083-.626-.56-.873-1.679-1.185-.083-.016-.067-.213.016-.213 1 .082 1.778.132 1.943.132a.559.559 0 0 0 .543-.263 3.7 3.7 0 0 0 .231-1.779v-.2a17.041 17.041 0 0 1 -7.2 2.765c-.083.018-.148-.132-.067-.163a19.663 19.663 0 0 0 7.081-4.281c-.066-.3-.148-.578-.231-.841a15.589 15.589 0 0 1 -6.553 2.4c-.083.016-.148-.132-.066-.165a17.376 17.376 0 0 0 5.981-3.649 5.091 5.091 0 0 0 -.445-.707 14.031 14.031 0 0 1 -5.285 1.877c-.083.016-.181-.132-.1-.163a13.434 13.434 0 0 0 5.188-3.297h-2.256a6.8 6.8 0 0 0 -1.054.1l-.181-.61a5.912 5.912 0 0 0 1.235.132h7.081c.743-.905.938-1.032 1.053-1.032.147 0 .329.132 1.07.723.33.263.461.412.461.528s-.05.163-.214.163h-4.116a11.317 11.317 0 0 0 1.351 3.376 10 10 0 0 0 1.284-1.614 8.212 8.212 0 0 0 .642-1.251c1.318.757 1.7 1.054 1.7 1.3 0 .181-.214.279-.658.279a16.693 16.693 0 0 1 -2.684 1.729 8.574 8.574 0 0 0 1.465 1.679 8.384 8.384 0 0 0 3.277 1.779c.083.016.033.116-.033.147-.444.247-.61.478-.922 1.3-.148.347-.164.363-.3.363a1.067 1.067 0 0 1 -.478-.231 9.029 9.029 0 0 1 -2.7-2.667 14.808 14.808 0 0 1 -2.323-6.193zm4.808-2.781c.61-.643.741-.741.873-.741.165 0 .3.1 1.235.855.428.363.477.478.477.61 0 .215-.147.347-.691.347a1.117 1.117 0 0 0 -.79.2c-.363.231-.642.379-1.071.61-.066.032-.132-.016-.116-.1a8.564 8.564 0 0 0 .3-1.4h-10.459c.016 1.152-.412 2.14-1.318 2.14a.762.762 0 0 1 -.79-.857c0-.428.115-.608.609-.873a1.869 1.869 0 0 0 1.136-1.7c0-.082.164-.1.181-.016a4.3 4.3 0 0 1 .164.922h4.331v-1.232c0-.231-.017-.544-.033-.922 1.976.181 2.156.345 2.156.51s-.164.3-.51.379v1.268z" transform="translate(64.109 .141)"/><path d="m94.549 6.341c.511-.675.642-.775.774-.775.165 0 .3.1.857.61.247.213.346.347.346.478 0 .114-.049.163-.4.428-.263 4.066-.51 5.894-.938 6.733a2.084 2.084 0 0 1 -.857.938 1.984 1.984 0 0 1 -.905.2c-.2 0-.263-.068-.28-.265-.1-.675-.411-.9-1.235-1.235-.082-.032-.049-.213.033-.2a11.721 11.721 0 0 0 1.4.116c.494 0 .609-.116.757-.741a36.167 36.167 0 0 0 .577-5.91h-1.378c-.3 4.282-1.22 6.439-3.312 8.366-.066.048-.214-.084-.164-.149 1.383-2.09 2.124-5.235 2.124-9.978 0-.229 0-.61-.016-1.1h-.477a6.781 6.781 0 0 0 -1.054.1l-.181-.61a5.871 5.871 0 0 0 1.218.132h1v-1.997c0-.279-.033-.675-.082-1.217 1.861.179 2.025.361 2.025.526 0 .116-.164.247-.477.412v2.271h.626c.593-.741.79-.873.905-.873.148 0 .313.132.857.626.214.2.346.347.346.462s-.05.163-.214.163h-3.01c-.017.825-.05 1.663-.1 2.488zm6.718.279a22.341 22.341 0 0 1 -.181 2.783h1.449c.724-.906.922-1.038 1.037-1.038.148 0 .33.132 1.071.725.33.263.461.412.461.526s-.05.165-.214.165h-3.853a5.14 5.14 0 0 0 1.877 2.5 8.03 8.03 0 0 0 3 1.235c.083.018.083.2 0 .231-.577.215-.741.395-.971 1.07-.067.181-.165.281-.28.281a1.367 1.367 0 0 1 -.626-.281 7.339 7.339 0 0 1 -1.6-1.3 6.5 6.5 0 0 1 -1.548-3.144 5.588 5.588 0 0 1 -.689 1.627 7.7 7.7 0 0 1 -4.874 3.161c-.082.016-.147-.165-.082-.2 2.387-1.3 3.77-2.733 4.281-5.187h-2.14a5.388 5.388 0 0 0 -.939.1l-.18-.61a5.041 5.041 0 0 0 1.12.132h2.214a17.412 17.412 0 0 0 .181-2.783h-1a9.889 9.889 0 0 1 -2.075 2.092c-.066.05-.2-.05-.148-.116a12.13 12.13 0 0 0 1.252-2.529 7.858 7.858 0 0 0 .51-1.926c1.745.494 1.861.544 1.861.757 0 .181-.116.247-.577.331a11.365 11.365 0 0 1 -.576 1.02h3.161c.642-.791.84-.922.955-.922.147 0 .329.132.988.659.28.213.411.363.411.476s-.05.165-.214.165zm-2.914-3.062a9.651 9.651 0 0 1 -2.025 2.142c-.066.05-.214-.05-.165-.116a12.126 12.126 0 0 0 1.63-3.721 9.2 9.2 0 0 0 .28-1.663c1.679.361 2.075.51 2.075.739 0 .181-.164.281-.61.331a9.733 9.733 0 0 1 -.921 1.91h4.083c.824-.988 1.021-1.12 1.136-1.12.148 0 .313.132 1.054.773.33.3.461.444.461.56s-.05.165-.214.165z" transform="translate(71.474 .163)"/><path d="m99.36 12.708h3.391v-11.659h2.124v13.667h-5.515zm4.972 1.48v-12.611h-1.037v11.657h-3.408v.954z" transform="translate(79.299 .86)"/><path d="m179.431 2.008h-3.391v11.657h-2.124v-13.665h5.516zm-4.972-1.482v12.613h1.041v-11.657h3.4v-.956z" transform="translate(140.41)"/><path d="m180.71 8.708a13.653 13.653 0 0 1 -2.683 1.976c-.066.05-.231-.116-.164-.163a12.479 12.479 0 0 0 3.161-4.48 9.079 9.079 0 0 0 .576-1.795c1.679.56 2.108.791 2.108 1.006s-.214.361-.691.426a14.037 14.037 0 0 1 -1.285 1.928c.758.114.873.179.873.345 0 .147-.1.231-.445.395v1.021c0 2.733.017 4.627.017 5.235 0 .478-.33.675-.939.675-.427 0-.691-.082-.691-.51 0-.478.164-2.008.164-4.922zm7.49-6.026c0 .56.017.938.017 1.1 0 .363-.28.526-.906.526-.444 0-.642-.114-.642-.444 0-.116.016-.46.016-1.185h-2.849c.017.51.017.857.017 1.022 0 .395-.3.542-.889.542-.461 0-.658-.132-.658-.494 0-.132.033-.46.033-1.07h-3.03a6.429 6.429 0 0 0 -1.037.1l-.181-.61a6 6 0 0 0 1.218.132h3.047v-.41a8.735 8.735 0 0 0 -.083-1.729c1.893.2 2.075.247 2.075.478 0 .149-.132.263-.511.412v1.248h2.849a18.891 18.891 0 0 0 -.049-2.141c1.778.215 2.025.265 2.025.512 0 .116-.116.213-.477.379v1.25h2.156c.741-.873.939-1 1.054-1 .148 0 .346.132 1.12.707.346.263.478.4.478.51s-.05.165-.214.165zm-1.315 6.518a12.437 12.437 0 0 0 2.189-1.91 7.162 7.162 0 0 0 1.236-1.79c1.367.757 1.926 1.152 1.926 1.4 0 .181-.164.329-.757.3a15.542 15.542 0 0 1 -4.594 2.536v2.93c0 .691.247.791 2.091.791a3.43 3.43 0 0 0 2.042-.347c.363-.279.577-.873.938-2.337.017-.084.214-.05.214.032-.033.626-.033 1.2-.033 1.713 0 .363.05.444.214.51.527.231.642.345.642.707 0 .444-.313.741-1.021.938a12.079 12.079 0 0 1 -3.013.265c-3.161 0-3.688-.313-3.688-2.157 0-.428.033-.873.033-2.635 0-1.909-.017-3.819-.066-5.729 1.828.2 2.206.263 2.206.494 0 .213-.181.329-.56.46z" transform="translate(143.633 .133)"/><path d="m193.824 2.959h-4.924a9.7 9.7 0 0 0 -1.268.1l-.181-.61a8.2 8.2 0 0 0 1.449.132h4.923v-.873a14.255 14.255 0 0 0 -.083-1.564c1.712.165 2.124.263 2.124.51 0 .165-.132.281-.511.478v1.449h4.1c.791-.97.988-1.1 1.1-1.1.148 0 .346.133 1.136.791.362.3.494.412.494.528s-.05.163-.214.163h-6.619v2.022h3.408c.56-.544.691-.642.824-.642.164 0 .3.1.873.576.263.231.362.347.362.478 0 .163-.049.213-.444.428v.526c0 1.383.066 2.323.066 2.635 0 .395-.28.592-.888.592-.511 0-.659-.132-.659-.576v-.28h-3.408a8.9 8.9 0 0 0 2.75 2.619 13.466 13.466 0 0 0 4.528 1.63c.083.016.066.163-.016.181-.659.181-.889.379-1.235 1.169-.1.213-.165.279-.3.279a2.883 2.883 0 0 1 -.675-.279 10.57 10.57 0 0 1 -2.683-1.813 11.984 11.984 0 0 1 -2.5-3.375v1.926c0 1.219.033 2.436.033 3.655 0 .46-.313.675-.905.675-.511 0-.758-.181-.758-.61 0-.51.1-2.651.148-4.512a14.907 14.907 0 0 1 -6.651 4.347c-.083.034-.181-.132-.116-.163a16.091 16.091 0 0 0 5.96-5.731h-2.5v.3c0 .444-.263.626-.905.626-.428 0-.609-.147-.609-.494 0-.41.082-.839.082-2.552a22.647 22.647 0 0 0 -.1-2.355 10.112 10.112 0 0 1 1.663.741h3.128zm0 2.4h-3.261v2.98h3.261zm5.071 2.98v-2.975h-3.54v2.98z" transform="translate(151.205 .118)"/><path d="m209.681 9.4a1.038 1.038 0 0 1 .527.807.866.866 0 0 1 -.214.61.91.91 0 0 1 -.56.181 1.2 1.2 0 0 1 -.757-.313 14.132 14.132 0 0 0 -1.861-1.267 9.472 9.472 0 0 1 -2.553 3.343 7.763 7.763 0 0 1 -2.025 1.136 4 4 0 0 1 -1 .313c-.1 0-.165-.016-.165-.132 0-.084.017-.149.148-.215.33-.181.626-.313.84-.46a8.087 8.087 0 0 0 2.19-2.042 10.756 10.756 0 0 0 1.367-2.5 14.247 14.247 0 0 0 -3.886-1.006 13.916 13.916 0 0 1 -1.794 2.833 2.233 2.233 0 0 1 -1.68.873 1.461 1.461 0 0 1 -1.087-.41 1.513 1.513 0 0 1 -.395-1.1 2.7 2.7 0 0 1 1.481-2.257 5.515 5.515 0 0 1 2.651-.741 42.2 42.2 0 0 0 1.762-4.691c.033-.116-.1-.149-.214-.116a7.081 7.081 0 0 0 -1.91.839.788.788 0 0 1 -.461.181 1.04 1.04 0 0 1 -.741-.428 2.805 2.805 0 0 1 -.626-1.2.782.782 0 0 1 .116-.444c.05-.084.132-.2.214-.2.1 0 .148.114.247.295.2.3.362.594.774.594a6.379 6.379 0 0 0 1.581-.313 1.91 1.91 0 0 0 1.136-.626.508.508 0 0 1 .478-.263 2.071 2.071 0 0 1 1.07.444.566.566 0 0 1 .28.476c0 .265-.132.38-.411.874a16.986 16.986 0 0 0 -.856 1.745c-.428.954-.774 1.761-1.268 2.865a17.893 17.893 0 0 1 3.885.675 8.667 8.667 0 0 0 .4-2.191c0-.46-.165-.658-.692-.889-.1-.05-.147-.016-.147-.116a.726.726 0 0 1 .658-.363 2.6 2.6 0 0 1 1.235.512c.625.46.724.675.724.954a.587.587 0 0 1 -.164.412 1.039 1.039 0 0 0 -.247.395c-.181.725-.3 1.153-.461 1.745a11 11 0 0 1 2.411 1.181zm-11.163-1.02a1.81 1.81 0 0 0 -1.038 1.432.892.892 0 0 0 .148.544.63.63 0 0 0 .544.247 1.515 1.515 0 0 0 1.07-.626 10.532 10.532 0 0 0 1.3-2.141 4.379 4.379 0 0 0 -2.025.548z" transform="translate(159.146 .556)"/><path d="m212.567 3.038a1.458 1.458 0 0 1 .741.147.554.554 0 0 1 .363.494c0 .247-.165.462-.511.594a28.342 28.342 0 0 1 -2.733.839c-.264.693-.791 2.175-1.152 3.161-.4 1.072-.972 2.554-1.845 4.775-.247.627-.543.841-.955.841a.8.8 0 0 1 -.477-.247.732.732 0 0 1 -.181-.594 2.865 2.865 0 0 1 .445-1.152 58.25 58.25 0 0 0 2.93-6.57 10.183 10.183 0 0 1 -1.795.231 1.794 1.794 0 0 1 -1.581-.643 1.565 1.565 0 0 1 -.444-.857c0-.1.033-.147.082-.147.1 0 .165.066.28.147a2.009 2.009 0 0 0 1.351.428 10.574 10.574 0 0 0 2.519-.395 10.946 10.946 0 0 0 .511-2.157.571.571 0 0 0 -.346-.576 3.846 3.846 0 0 0 -.609-.2c-.116-.034-.181-.066-.181-.132 0-.1.05-.181.231-.281a1.653 1.653 0 0 1 .774-.2 3.148 3.148 0 0 1 1.7.658.624.624 0 0 1 .247.462.811.811 0 0 1 -.23.494 4.235 4.235 0 0 0 -.791 1.614 3.792 3.792 0 0 0 1-.478 1.417 1.417 0 0 1 .657-.256zm-.312 6.862a3.087 3.087 0 0 0 -.148 1c0 .889.774 1.564 2.5 1.564a6.66 6.66 0 0 0 1.662-.132 2.454 2.454 0 0 1 .857-.116 2.034 2.034 0 0 1 .824.215.775.775 0 0 1 .411.691c0 .428-.4.626-.889.707a12.676 12.676 0 0 1 -1.811.084 8.356 8.356 0 0 1 -2.19-.281 2.448 2.448 0 0 1 -1.971-2.332 3 3 0 0 1 .461-1.6c.083-.149.214-.281.3-.281s.1.05.1.132a1.924 1.924 0 0 1 -.106.349zm1.745-3.488a5.7 5.7 0 0 0 -1.877.643.237.237 0 0 1 -.148.05.132.132 0 0 1 -.148-.149.393.393 0 0 1 .116-.213 5.609 5.609 0 0 1 1.515-1 5.759 5.759 0 0 1 2.091-.4 4.634 4.634 0 0 1 1.828.363.837.837 0 0 1 .56.807.527.527 0 0 1 -.576.494 2.946 2.946 0 0 1 -.642-.082 3.711 3.711 0 0 0 -.61-.05 5.773 5.773 0 0 0 -2.322.938.371.371 0 0 1 -.247.082c-.082 0-.066-.066-.066-.116a17.247 17.247 0 0 1 1.579-1.379 4.7 4.7 0 0 0 -1.053.012z" transform="translate(166.195 .452)"/><path d="m218.847 9.424a5.771 5.771 0 0 0 -.214.873.983.983 0 0 0 .116.444 1.521 1.521 0 0 1 .263.709.634.634 0 0 1 -.626.675 2.319 2.319 0 0 1 -1.581-.709 5.49 5.49 0 0 1 -1.712-3.227 15.325 15.325 0 0 1 -.214-2.7c0-.709.033-1.482 0-2.289a1.784 1.784 0 0 0 -.675-1.235c-.082-.084-.115-.084-.115-.181 0-.132.066-.165.346-.165a2.066 2.066 0 0 1 1.185.594 2.118 2.118 0 0 1 .938 1.448 1.149 1.149 0 0 1 -.148.643 8.1 8.1 0 0 0 -.28 2.371 6.413 6.413 0 0 0 .362 2.3c.181.478.445.807.725.807a.609.609 0 0 0 .395-.3c.511-.707.939-1.464 1.845-2.881.132-.2.247-.331.329-.331s.165.034.165.116a.683.683 0 0 1 -.066.263 23.092 23.092 0 0 0 -1.038 2.775zm5.713-5.2a5.675 5.675 0 0 1 2.207 2.207 5.083 5.083 0 0 1 .593 2.157 1.9 1.9 0 0 1 -.247 1.185.636.636 0 0 1 -.577.345.6.6 0 0 1 -.609-.313c-.3-.46-.675-.741-1.729-.823-.2-.016-.247-.066-.247-.165s.148-.132.313-.181a11.225 11.225 0 0 0 1.152-.395.379.379 0 0 0 .264-.395 4.619 4.619 0 0 0 -.791-2.092 5.548 5.548 0 0 0 -1.712-1.679c-.116-.084-.214-.132-.214-.231 0-.082.066-.116.148-.116a3.665 3.665 0 0 1 1.45.493z" transform="translate(173.34 1.327)"/><path d="m230.732 3.46c0 .379-.2.592-.691.773-.527.181-1.4.379-2.437.626-.921 2.157-1.861 4.281-2.65 5.944a3.134 3.134 0 0 1 -.658 1.038.87.87 0 0 1 -.428.132.647.647 0 0 1 -.511-.213.665.665 0 0 1 -.23-.528 2.78 2.78 0 0 1 .544-1.086 34.978 34.978 0 0 0 2.716-5.006c-.4.05-1.12.147-1.5.147a2.065 2.065 0 0 1 -1.071-.213 2.188 2.188 0 0 1 -.971-1.054.673.673 0 0 1 -.066-.281c0-.082.083-.1.116-.1.049 0 .082.016.18.1a1.9 1.9 0 0 0 .741.4 3.316 3.316 0 0 0 .807.082 12.231 12.231 0 0 0 2.223-.313 6.292 6.292 0 0 0 .544-2.074c0-.4-.116-.494-.988-.825-.083-.032-.132-.082-.132-.147a.291.291 0 0 1 .165-.215 1.445 1.445 0 0 1 .724-.163 3.481 3.481 0 0 1 1.646.544.625.625 0 0 1 .363.608.5.5 0 0 1 -.214.428c-.23.181-.4.462-.823 1.516a4.286 4.286 0 0 0 1.087-.494 1.4 1.4 0 0 1 .691-.215c.527.029.823.358.823.589zm.478 1.992a5.9 5.9 0 0 0 -.774.016 3.079 3.079 0 0 1 -.313.034c-.1 0-.165-.034-.165-.116 0-.1.083-.165.2-.215a4.014 4.014 0 0 1 1.712-.329 5.733 5.733 0 0 1 2.783.725 1.268 1.268 0 0 1 .757 1.07c0 .379-.164.642-.576.642a1.3 1.3 0 0 1 -.642-.263 1.893 1.893 0 0 0 -1.284-.576 1.2 1.2 0 0 0 -.741.213 1.163 1.163 0 0 0 -.61 1.153 13.389 13.389 0 0 0 .56 3.062c2.536.857 3.211 1.532 3.211 2.173a.647.647 0 0 1 -.642.725 1.312 1.312 0 0 1 -.955-.46 6.9 6.9 0 0 0 -1.548-1.153 2.041 2.041 0 0 1 -.823 1.811 3.258 3.258 0 0 1 -1.91.462 2.966 2.966 0 0 1 -1.877-.626 1.621 1.621 0 0 1 -.658-1.253 1.721 1.721 0 0 1 .691-1.367 3.386 3.386 0 0 1 1.976-.592 8.118 8.118 0 0 1 1.185.082c-.066-.873-.115-1.745-.115-2.452 0-1.416 1.1-2.026 2.189-2.273a3.4 3.4 0 0 0 -1.631-.493zm-1.845 5.976a2.762 2.762 0 0 0 -1.415.265.841.841 0 0 0 0 1.448 2.4 2.4 0 0 0 1.168.263 2.1 2.1 0 0 0 1.383-.395 1.44 1.44 0 0 0 .363-1.07 1.139 1.139 0 0 0 -.017-.231 4.32 4.32 0 0 0 -1.482-.28z" transform="translate(180.463 .393)"/><path d="m234.732 4.754a7.614 7.614 0 0 1 -3.671 2.98c-.083.034-.181-.1-.115-.147a8.786 8.786 0 0 0 1.811-2.273 7.345 7.345 0 0 0 .692-1.811c1.614.51 1.942.659 1.942.906-.001.198-.149.279-.659.345zm-1.2 7c0 1.416-.626 2.436-1.564 2.436a.82.82 0 0 1 -.873-.873c0-.426.164-.691.691-.938a2.195 2.195 0 0 0 1.334-2.09c0-.084.181-.1.2-.018a5.463 5.463 0 0 1 .209 1.481zm4.248-9.006a6.745 6.745 0 0 1 -.823 3.671c-.84 1.367-2.371 2.189-4.759 2.667-.082.016-.164-.147-.082-.181a6.668 6.668 0 0 0 3.638-3.112 7.061 7.061 0 0 0 .527-3.046h-3.82a7.959 7.959 0 0 0 -1.152.1l-.181-.608a6.912 6.912 0 0 0 1.317.132h5.039v-1.254a8.442 8.442 0 0 0 -.084-.972c2.059.181 2.256.363 2.256.544 0 .163-.181.313-.577.46v1.219h4c.84-1 1.037-1.137 1.152-1.137.147 0 .329.133 1.136.791.363.3.494.444.494.56s-.049.165-.214.165h-4.675v1.76c0 1.006.016 1.976.016 2.6a1.209 1.209 0 0 1 -.724 1.219 2.163 2.163 0 0 1 -1.054.3c-.28 0-.313-.034-.33-.363-.066-.659-.379-.922-1.4-1.169-.083-.016-.017-.247.066-.231a13.29 13.29 0 0 0 1.7.116c.181 0 .23-.1.23-.247v-3.986zm4.048 10.252c0 .132.066.215.231.265.46.181.56.279.56.576 0 .526-.412.839-1.449 1.02a20.607 20.607 0 0 1 -2.865.149c-2.865 0-3.342-.263-3.342-1.878 0-.313.033-.642.033-1.926 0-.56-.017-1.12-.066-1.679 1.6.149 2.025.247 2.025.478 0 .147-.116.247-.478.428v2.717c0 .494.214.544 2.108.544a4.62 4.62 0 0 0 1.828-.215c.561-.263.791-.873 1.219-2.223.033-.082.2-.032.2.05zm-2.6-1.168c-.444 0-.543-.116-.856-1.038a4.162 4.162 0 0 0 -1.153-1.663c-.066-.05 0-.132.083-.116 1.91.347 2.783.938 2.783 1.877a.864.864 0 0 1 -.858.944zm5.072-4.146c-.445 0-.642-.2-.905-.922a6.066 6.066 0 0 0 -1.877-2.849c-.066-.05.05-.2.132-.165 2.339.823 3.541 1.795 3.541 2.882a.944.944 0 0 1 -.891 1.054zm.346 6.173c-.527 0-.658-.181-.905-1.251a4.222 4.222 0 0 0 -1.268-2.339c-.066-.05.016-.163.1-.147 1.926.592 3.013 1.532 3.013 2.651a.97.97 0 0 1 -.942 1.087z" transform="translate(187.139 .118)"/><path d="m250.163 4.613a3.468 3.468 0 0 1 1.317.412c.774.395.938.807.938 1.12 0 .329-.213.494-.576.528a4.463 4.463 0 0 0 -.922.229 18.663 18.663 0 0 0 -2.437 1.038c-.543.281-1.152.576-1.547.807-.017.412-.017.906-.017 1.251a6.005 6.005 0 0 1 -.05 1.45.645.645 0 0 1 -.609.426c-.478 0-.725-.229-.725-.789 0-.3.033-.691.05-1.582-.4.231-.658.412-.857.544-.889.61-1.334 1.12-1.334 1.827 0 .775.692 1.169 2.24 1.169a14.02 14.02 0 0 0 2.239-.116 4.435 4.435 0 0 0 .971-.279 2.146 2.146 0 0 1 .675-.132 1.576 1.576 0 0 1 .971.279.833.833 0 0 1 .346.61.636.636 0 0 1 -.28.494 7.3 7.3 0 0 1 -3.21.412 7.666 7.666 0 0 1 -3.54-.494 1.912 1.912 0 0 1 -1.136-1.845 2.9 2.9 0 0 1 1.136-2.14 12.35 12.35 0 0 1 1.794-1.283c.016-.3.016-.544.016-.775 0-.873-.214-1.415-.807-1.415a2.671 2.671 0 0 0 -1.861 1.136 17.978 17.978 0 0 0 -1.169 1.679 1.063 1.063 0 0 1 -.741.478.673.673 0 0 1 -.51-.181.639.639 0 0 1 -.181-.528 1.054 1.054 0 0 1 .264-.675c.164-.147.395-.363.576-.542a16.1 16.1 0 0 0 2.4-3.261c-.313.032-.791.082-1.186.116a1.888 1.888 0 0 1 -1.975-1.335.977.977 0 0 1 -.083-.379c0-.082.033-.147.1-.147a.292.292 0 0 1 .181.147 1.913 1.913 0 0 0 1.646.675 9.049 9.049 0 0 0 1.91-.263 7.665 7.665 0 0 0 .543-1.351 1.825 1.825 0 0 0 .083-.444.4.4 0 0 0 -.148-.281 1.256 1.256 0 0 0 -.4-.229 2.013 2.013 0 0 0 -.346-.116c-.082-.016-.1-.034-.1-.084 0-.082.066-.132.116-.179a.9.9 0 0 1 .609-.2 3.569 3.569 0 0 1 1.662.428.665.665 0 0 1 .4.61.555.555 0 0 1 -.231.412 1.923 1.923 0 0 0 -.444.46c-.1.132-.363.51-.494.725a2.967 2.967 0 0 0 1.318-.61.987.987 0 0 1 .593-.181c.626 0 1.07.247 1.07.61a.617.617 0 0 1 -.461.576 19.323 19.323 0 0 1 -3.144.841c-.164.247-.346.494-.577.873a14.231 14.231 0 0 1 -.856 1.285 3.178 3.178 0 0 1 1.795-.693 1.538 1.538 0 0 1 1.4.643 2.562 2.562 0 0 1 .3 1.4c1.318-.807 2.026-1.235 2.8-1.729.329-.213.593-.361.593-.494a.452.452 0 0 0 -.181-.329 1.03 1.03 0 0 0 -.477-.247c-.05-.016-.067-.05-.067-.132 0-.143.297-.23.627-.23z" transform="translate(194.865 .326)"/><path d="m251.272 3.225a21.288 21.288 0 0 0 -.28 2.9c-.132 1.729-.2 3.227-.2 4.265 0 .857.132 1.333.379 1.564a2.594 2.594 0 0 0 1.581.379 8.085 8.085 0 0 0 3.589-1 9.558 9.558 0 0 0 2.883-2.233c.1-.116.2-.213.3-.213a.155.155 0 0 1 .164.163 1.511 1.511 0 0 1 -.214.462 9.513 9.513 0 0 1 -2.865 2.93 7.412 7.412 0 0 1 -4.4 1.335c-1.729 0-2.783-1.187-2.733-3.211.066-2.751.181-5.45.247-7.952.016-.61-.1-.874-.626-1.088-.461-.165-.511-.181-.511-.281 0-.147.116-.213.28-.295a2.19 2.19 0 0 1 .759-.15 2.553 2.553 0 0 1 1.581.741 1.156 1.156 0 0 1 .477.841.806.806 0 0 1 -.23.56c-.066.102-.153.152-.181.283z" transform="translate(201.618 .66)"/><path d="m262.934 3.038a1.458 1.458 0 0 1 .741.147.554.554 0 0 1 .363.494c0 .247-.165.462-.511.594a28.34 28.34 0 0 1 -2.733.839c-.264.693-.791 2.175-1.152 3.161-.4 1.072-.972 2.554-1.845 4.775-.247.627-.543.841-.955.841a.8.8 0 0 1 -.477-.247.732.732 0 0 1 -.181-.594 2.864 2.864 0 0 1 .445-1.152 58.255 58.255 0 0 0 2.93-6.57 10.183 10.183 0 0 1 -1.795.231 1.794 1.794 0 0 1 -1.581-.643 1.565 1.565 0 0 1 -.444-.857c0-.1.033-.147.082-.147.1 0 .165.066.28.147a2.009 2.009 0 0 0 1.351.428 10.575 10.575 0 0 0 2.519-.395 10.946 10.946 0 0 0 .511-2.157.571.571 0 0 0 -.346-.576 3.846 3.846 0 0 0 -.61-.2c-.115-.034-.181-.066-.181-.132 0-.1.05-.181.231-.281a1.652 1.652 0 0 1 .774-.2 3.148 3.148 0 0 1 1.7.658.624.624 0 0 1 .247.462.811.811 0 0 1 -.23.494 4.236 4.236 0 0 0 -.791 1.614 3.792 3.792 0 0 0 1-.478 1.417 1.417 0 0 1 .658-.256zm-.312 6.862a3.087 3.087 0 0 0 -.148 1c0 .889.774 1.564 2.5 1.564a6.66 6.66 0 0 0 1.662-.132 2.454 2.454 0 0 1 .857-.116 2.034 2.034 0 0 1 .824.215.775.775 0 0 1 .411.691c0 .428-.4.626-.889.707a12.676 12.676 0 0 1 -1.811.084 8.357 8.357 0 0 1 -2.19-.281 2.448 2.448 0 0 1 -1.976-2.339 3 3 0 0 1 .461-1.6c.083-.149.214-.281.3-.281s.1.05.1.132a1.924 1.924 0 0 1 -.101.356zm1.745-3.492a5.7 5.7 0 0 0 -1.877.643.237.237 0 0 1 -.148.05.132.132 0 0 1 -.148-.149.393.393 0 0 1 .116-.213 5.61 5.61 0 0 1 1.515-1 5.759 5.759 0 0 1 2.091-.4 4.635 4.635 0 0 1 1.828.363.837.837 0 0 1 .56.807.527.527 0 0 1 -.576.494 2.946 2.946 0 0 1 -.642-.082 3.711 3.711 0 0 0 -.61-.05 5.773 5.773 0 0 0 -2.322.938.371.371 0 0 1 -.247.082c-.082 0-.066-.066-.066-.116a17.254 17.254 0 0 1 1.58-1.375 4.7 4.7 0 0 0 -1.054.012z" transform="translate(207.48 .452)"/><path d="m264.2 12.708h3.391v-11.659h2.124v13.667h-5.515zm4.972 1.48v-12.611h-1.037v11.657h-3.405v.954z" transform="translate(214.417 .86)"/></g></svg>